# Blender v2.78 (sub 0) OBJ File: ''
# www.blender.org
o Cube
v 1.000000 -1.000000 -1.000000
v 1.000000 -1.000000 1.000000
v -1.000000 -1.000000 1.000000
v -1.000000 -1.000000 -1.000000
v 1.000000 1.000000 -0.999999
v 0.999999 1.000000 1.000001
v -1.000000 1.000000 1.000000
v -1.000000 1.000000 -1.000000
vt 0.5478 0.5690
vt 0.4461 0.6707
vt 0.4461 0.5690
vt 0.5531 0.9481
vt 0.4058 0.8008
vt 0.5531 0.8008
vt 0.8532 0.9023
vt 0.9386 0.8169
vt 0.9386 0.9023
vt 0.6276 0.8205
vt 0.7338 0.9267
vt 0.6276 0.9267
vt 0.3498 0.6967
vt 0.2276 0.5746
vt 0.3498 0.5746
vt 0.3572 0.7976
vt 0.1966 0.9583
vt 0.1966 0.7976
vt 0.5478 0.6707
vt 0.4058 0.9481
vt 0.8532 0.8169
vt 0.7338 0.8205
vt 0.2276 0.6967
vt 0.3572 0.9583
vn 0.0000 -1.0000 0.0000
vn 0.0000 1.0000 0.0000
vn 1.0000 -0.0000 0.0000
vn 0.0000 -0.0000 1.0000
vn -1.0000 -0.0000 -0.0000
vn 0.0000 0.0000 -1.0000
s off
f 2/1/1 4/2/1 1/3/1
f 8/4/2 6/5/2 5/6/2
f 5/7/3 2/8/3 1/9/3
f 6/10/4 3/11/4 2/12/4
f 3/13/5 8/14/5 4/15/5
f 1/16/6 8/17/6 5/18/6
f 2/1/1 3/19/1 4/2/1
f 8/4/2 7/20/2 6/5/2
f 5/7/3 6/21/3 2/8/3
f 6/10/4 7/22/4 3/11/4
f 3/13/5 7/23/5 8/14/5
f 1/16/6 4/24/6 8/17/6
