# Blender v2.77 (sub 0) OBJ File: 'skybox.blend'
# www.blender.org
o Cube
v 10.811894 -10.811894 -10.811893
v 10.811894 -10.811894 10.811894
v -10.811895 -10.811894 10.811893
v -10.811891 -10.811894 -10.811898
v 10.811899 10.811894 -10.811889
v 10.811888 10.811894 10.811901
v -10.811898 10.811894 10.811891
v -10.811893 10.811894 -10.811894
vt 0.4948 0.0026
vt 0.2487 0.3359
vt 0.2487 0.0026
vt 0.4995 0.9989
vt 0.2557 0.6626
vt 0.5018 0.6656
vt 0.5000 0.6650
vt 0.2500 0.3350
vt 0.5000 0.3351
vt 0.2480 0.6644
vt 0.0033 0.3304
vt 0.2485 0.3310
vt 0.9984 0.3338
vt 0.7464 0.6610
vt 0.7484 0.3313
vt 0.5043 0.3321
vt 0.7535 0.6679
vt 0.5035 0.6671
vt 0.4948 0.3359
vt 0.2534 0.9959
vt 0.2500 0.6649
vt 0.0028 0.6638
vt 0.9964 0.6635
vt 0.7543 0.3330
vn 0.0000 -1.0000 0.0000
vn 0.0000 1.0000 -0.0000
vn 1.0000 -0.0000 0.0000
vn 0.0000 -0.0000 1.0000
vn -1.0000 -0.0000 -0.0000
vn 0.0000 0.0000 -1.0000
s off
f 2/1/1 4/2/1 1/3/1
f 8/4/2 6/5/2 5/6/2
f 5/7/3 2/8/3 1/9/3
f 6/10/4 3/11/4 2/12/4
f 3/13/5 8/14/5 4/15/5
f 1/16/6 8/17/6 5/18/6
f 2/1/1 3/19/1 4/2/1
f 8/4/2 7/20/2 6/5/2
f 5/7/3 6/21/3 2/8/3
f 6/10/4 7/22/4 3/11/4
f 3/13/5 7/23/5 8/14/5
f 1/16/6 4/24/6 8/17/6
